<svg width="290" height="290" viewBox="0 0 290 290" fill="none" xmlns="http://www.w3.org/2000/svg">
<path d="M145 18.125C178.649 18.125 210.92 31.4921 234.714 55.2858C258.508 79.0795 271.875 111.351 271.875 145C271.875 178.649 258.508 210.92 234.714 234.714C210.92 258.508 178.649 271.875 145 271.875C111.351 271.875 79.0795 258.508 55.2858 234.714C31.4921 210.92 18.125 178.649 18.125 145C18.125 111.351 31.4921 79.0795 55.2858 55.2858C79.0795 31.4921 111.351 18.125 145 18.125ZM129.195 170.031L101.011 141.828C100 140.818 98.8007 140.016 97.4806 139.469C96.1604 138.923 94.7455 138.641 93.3166 138.641C91.8876 138.641 90.4727 138.923 89.1526 139.469C87.8324 140.016 86.6329 140.818 85.6225 141.828C83.5819 143.869 82.4355 146.636 82.4355 149.522C82.4355 152.408 83.5819 155.176 85.6225 157.216L121.51 193.104C122.518 194.119 123.716 194.925 125.037 195.475C126.357 196.025 127.774 196.308 129.204 196.308C130.635 196.308 132.051 196.025 133.371 195.475C134.692 194.925 135.891 194.119 136.898 193.104L211.211 118.773C212.235 117.767 213.049 116.568 213.607 115.245C214.166 113.923 214.456 112.503 214.463 111.067C214.47 109.632 214.192 108.209 213.646 106.881C213.1 105.554 212.297 104.347 211.282 103.331C210.268 102.316 209.062 101.511 207.735 100.963C206.408 100.416 204.986 100.137 203.55 100.142C202.115 100.147 200.694 100.436 199.371 100.993C198.048 101.549 196.848 102.362 195.841 103.385L129.195 170.031Z" fill="#99FFAF"/>
</svg>
